<svg xmlns="http://www.w3.org/2000/svg" viewBox="0 0 17.163 15.259">
  <path id="Контур_100" data-name="Контур 100" d="M15.736-5.029a.7.7,0,0,1-.253.417.691.691,0,0,1-.432.149H6.318L6.5-3.51h8.017a.65.65,0,0,1,.536.268.721.721,0,0,1,.149.6L15.02-1.9a1.614,1.614,0,0,1,.7.611,1.618,1.618,0,0,1,.253.879A1.606,1.606,0,0,1,15.482.767a1.606,1.606,0,0,1-1.177.492A1.606,1.606,0,0,1,13.128.767a1.623,1.623,0,0,1-.492-1.192A1.552,1.552,0,0,1,13.143-1.6H6.884A1.552,1.552,0,0,1,7.391-.425,1.623,1.623,0,0,1,6.9.767a1.606,1.606,0,0,1-1.177.492A1.606,1.606,0,0,1,4.545.767,1.606,1.606,0,0,1,4.053-.41a1.642,1.642,0,0,1,.224-.834,1.755,1.755,0,0,1,.611-.626L2.8-12.093H.715A.69.69,0,0,1,.209-12.3.69.69,0,0,1,0-12.808v-.477a.69.69,0,0,1,.209-.507A.69.69,0,0,1,.715-14h3.07a.653.653,0,0,1,.432.164.757.757,0,0,1,.253.4l.268,1.341H16.451a.679.679,0,0,1,.566.268.646.646,0,0,1,.119.6Z" transform="translate(0 14)" fill="currentColor"/>
</svg>
