<svg xmlns="http://www.w3.org/2000/svg" viewBox="0 0 16.783 16.783">
  <g id="noun-ball-bearing-5330630" transform="translate(-2 -2)">
    <path id="Контур_213" data-name="Контур 213" d="M10.392,2a8.392,8.392,0,1,0,8.392,8.392A8.392,8.392,0,0,0,10.392,2Zm0,15.884a7.492,7.492,0,1,1,7.492-7.492A7.492,7.492,0,0,1,10.392,17.884Z" transform="translate(0 0)"/>
    <path id="Контур_215" data-name="Контур 215" d="M13.893,7a6.893,6.893,0,1,0,6.893,6.893A6.893,6.893,0,0,0,13.893,7Zm2.755,2.443a1.2,1.2,0,1,1,0,1.7A1.2,1.2,0,0,1,16.648,9.443ZM13.893,7.6a1.2,1.2,0,1,1-1.2,1.2A1.2,1.2,0,0,1,13.893,7.6ZM9.443,9.443a1.2,1.2,0,1,1,0,1.7A1.2,1.2,0,0,1,9.443,9.443ZM8.8,15.092a1.2,1.2,0,1,1,1.2-1.2A1.2,1.2,0,0,1,8.8,15.092Zm2.34,3.252a1.2,1.2,0,1,1,.352-.848A1.2,1.2,0,0,1,11.138,18.344Zm2.755,1.843a1.2,1.2,0,1,1,1.2-1.2A1.2,1.2,0,0,1,13.893,20.187Zm0-3a3.3,3.3,0,1,1,3.3-3.3,3.3,3.3,0,0,1-3.3,3.3Zm4.451,1.154A1.2,1.2,0,1,1,18.7,17.5a1.2,1.2,0,0,1-.352.848Zm1.843-4.451a1.2,1.2,0,1,1-1.2-1.2A1.2,1.2,0,0,1,20.187,13.893Z" transform="translate(-3.501 -3.502)"/>
  </g>
</svg>
