<svg xmlns="http://www.w3.org/2000/svg" viewBox="0 0 14.517 14.517">
  <path id="Контур_73" data-name="Контур 73" d="M13.989-.182a.538.538,0,0,0,.4-.227.719.719,0,0,0,.142-.426A12.949,12.949,0,0,0,12.74-7.474,13.228,13.228,0,0,0,8-12.213,12.949,12.949,0,0,0,1.363-14a.719.719,0,0,0-.426.142.538.538,0,0,0-.227.4L.029-10.51a.64.64,0,0,0,.057.454.611.611,0,0,0,.34.312L3.6-8.382a.72.72,0,0,0,.426.043A.57.57,0,0,0,4.4-8.581l1.39-1.7A9.973,9.973,0,0,1,8.754-8.212a10.424,10.424,0,0,1,2.057,2.951l-1.7,1.419a.679.679,0,0,0-.227.355.707.707,0,0,0,.028.44L10.272.13a.626.626,0,0,0,.312.312A.64.64,0,0,0,11.038.5Z" transform="translate(14.528 0.517) rotate(180)" fill="currentColor"/>
</svg>
