<svg xmlns="http://www.w3.org/2000/svg" viewBox="0 0 8.275 11.033">
  <path id="Контур_101" data-name="Контур 101" d="M.706,3.818a.494.494,0,0,0,.431.215.494.494,0,0,0,.431-.215L3.012,1.749Q4.09.2,4.434-.341a6.069,6.069,0,0,0,.668-1.3,3.923,3.923,0,0,0,.172-1.218,3.993,3.993,0,0,0-.56-2.069A4.217,4.217,0,0,0,3.206-6.44,3.993,3.993,0,0,0,1.137-7a3.993,3.993,0,0,0-2.069.56A4.217,4.217,0,0,0-2.44-4.931,3.993,3.993,0,0,0-3-2.863a3.923,3.923,0,0,0,.172,1.218,6.069,6.069,0,0,0,.668,1.3Q-1.815.2-.737,1.749.146,3,.706,3.818Zm.431-4.956A1.66,1.66,0,0,1-.08-1.645,1.66,1.66,0,0,1-.586-2.863,1.66,1.66,0,0,1-.08-4.08a1.66,1.66,0,0,1,1.218-.506,1.66,1.66,0,0,1,1.218.506,1.66,1.66,0,0,1,.506,1.218,1.66,1.66,0,0,1-.506,1.218A1.66,1.66,0,0,1,1.137-1.139Z" transform="translate(3 7)" fill="currentColor"/>
</svg>
