<svg xmlns="http://www.w3.org/2000/svg" viewBox="0 0 10.5 14">
  <path id="Контур_110" data-name="Контур 110" d="M9.844-10.5a6.013,6.013,0,0,1-.93,3.295A4.52,4.52,0,0,1,6.535-5.25,4.52,4.52,0,0,1,8.914-3.295,6.013,6.013,0,0,1,9.844,0a.633.633,0,0,1,.465.191A.633.633,0,0,1,10.5.656v.437a.633.633,0,0,1-.191.465.633.633,0,0,1-.465.191H.656a.633.633,0,0,1-.465-.191A.633.633,0,0,1,0,1.094V.656A.633.633,0,0,1,.191.191.633.633,0,0,1,.656,0a6.013,6.013,0,0,1,.93-3.295A4.52,4.52,0,0,1,3.965-5.25,4.52,4.52,0,0,1,1.586-7.205,6.013,6.013,0,0,1,.656-10.5a.633.633,0,0,1-.465-.191A.633.633,0,0,1,0-11.156v-.437a.633.633,0,0,1,.191-.465.633.633,0,0,1,.465-.191H9.844a.633.633,0,0,1,.465.191.633.633,0,0,1,.191.465v.437a.633.633,0,0,1-.191.465A.633.633,0,0,1,9.844-10.5ZM5.25-6.562A2.21,2.21,0,0,0,6.672-7.1,3.62,3.62,0,0,0,7.711-8.545,5.019,5.019,0,0,0,8.094-10.5H2.406a5.019,5.019,0,0,0,.383,1.955A3.62,3.62,0,0,0,3.828-7.1,2.21,2.21,0,0,0,5.25-6.562Z" transform="translate(0 12.25)" fill="#f4b045"/>
</svg>
