<svg xmlns="http://www.w3.org/2000/svg" viewBox="0 0 13.351 15.259">
  <path id="Контур_99" data-name="Контур 99" d="M6.676-6.371a3.783,3.783,0,0,1-1.922-.507A3.711,3.711,0,0,1,3.368-8.263a3.782,3.782,0,0,1-.507-1.922,3.783,3.783,0,0,1,.507-1.922,3.711,3.711,0,0,1,1.386-1.386A3.782,3.782,0,0,1,6.676-14a3.782,3.782,0,0,1,1.922.507,3.711,3.711,0,0,1,1.386,1.386,3.783,3.783,0,0,1,.507,1.922,3.783,3.783,0,0,1-.507,1.922A3.711,3.711,0,0,1,8.6-6.877,3.783,3.783,0,0,1,6.676-6.371Zm2.682.954a3.909,3.909,0,0,1,2,.536,3.961,3.961,0,0,1,1.46,1.46,3.909,3.909,0,0,1,.536,2V-.172A1.38,1.38,0,0,1,12.934.842a1.38,1.38,0,0,1-1.013.417H1.431A1.38,1.38,0,0,1,.417.842,1.38,1.38,0,0,1,0-.172V-1.423a3.909,3.909,0,0,1,.536-2A3.961,3.961,0,0,1,2-4.88a3.909,3.909,0,0,1,2-.536H4.5a5.175,5.175,0,0,0,2.176.477,5.175,5.175,0,0,0,2.176-.477Z" transform="translate(0 14)" fill="currentColor"/>
</svg>
