<?xml version="1.0" encoding="UTF-8"?><!DOCTYPE svg PUBLIC "-//W3C//DTD SVG 1.1//EN" "http://www.w3.org/Graphics/SVG/1.1/DTD/svg11.dtd"><svg xmlns="http://www.w3.org/2000/svg" xmlns:xlink="http://www.w3.org/1999/xlink"><symbol id="arrow" viewBox="0 0 7.301 12.603">
  <path id="&#x41a;&#x43e;&#x43d;&#x442;&#x443;&#x440;_12" data-name="&#x41a;&#x43e;&#x43d;&#x442;&#x443;&#x440; 12" d="M2392.993,469.773l-4.887,4.887,4.887,4.887" transform="translate(-2387.106 -468.359)" fill="none" stroke="currentColor" stroke-linecap="round" stroke-linejoin="round" stroke-width="2"/>
</symbol><symbol id="basket" viewBox="0 0 17.163 15.259">
  <path id="&#x41a;&#x43e;&#x43d;&#x442;&#x443;&#x440;_100" data-name="&#x41a;&#x43e;&#x43d;&#x442;&#x443;&#x440; 100" d="M15.736-5.029a.7.7,0,0,1-.253.417.691.691,0,0,1-.432.149H6.318L6.5-3.51h8.017a.65.65,0,0,1,.536.268.721.721,0,0,1,.149.6L15.02-1.9a1.614,1.614,0,0,1,.7.611,1.618,1.618,0,0,1,.253.879A1.606,1.606,0,0,1,15.482.767a1.606,1.606,0,0,1-1.177.492A1.606,1.606,0,0,1,13.128.767a1.623,1.623,0,0,1-.492-1.192A1.552,1.552,0,0,1,13.143-1.6H6.884A1.552,1.552,0,0,1,7.391-.425,1.623,1.623,0,0,1,6.9.767a1.606,1.606,0,0,1-1.177.492A1.606,1.606,0,0,1,4.545.767,1.606,1.606,0,0,1,4.053-.41a1.642,1.642,0,0,1,.224-.834,1.755,1.755,0,0,1,.611-.626L2.8-12.093H.715A.69.69,0,0,1,.209-12.3.69.69,0,0,1,0-12.808v-.477a.69.69,0,0,1,.209-.507A.69.69,0,0,1,.715-14h3.07a.653.653,0,0,1,.432.164.757.757,0,0,1,.253.4l.268,1.341H16.451a.679.679,0,0,1,.566.268.646.646,0,0,1,.119.6Z" transform="translate(0 14)" fill="currentColor"/>
</symbol><symbol id="catalog-trigger" viewBox="0 0 16 12">
  <path id="&#x41e;&#x431;&#x44a;&#x435;&#x434;&#x438;&#x43d;&#x435;&#x43d;&#x438;&#x435;_16" data-name="&#x41e;&#x431;&#x44a;&#x435;&#x434;&#x438;&#x43d;&#x435;&#x43d;&#x438;&#x435; 16" d="M10,15V4a1,1,0,0,1,2,0V15a1,1,0,0,1-2,0ZM5,15V1A1,1,0,0,1,7,1V15a1,1,0,0,1-2,0ZM0,15V8A1,1,0,0,1,2,8v7a1,1,0,0,1-2,0Z" transform="translate(16) rotate(90)" fill="currentColor"/>
</symbol><symbol id="circle-close" viewBox="0 0 512 512"><!--!Font Awesome Free 6.5.1 by @fontawesome - https://fontawesome.com License - https://fontawesome.com/license/free Copyright 2024 Fonticons, Inc.--><path d="M256 512A256 256 0 1 0 256 0a256 256 0 1 0 0 512zM175 175c9.4-9.4 24.6-9.4 33.9 0l47 47 47-47c9.4-9.4 24.6-9.4 33.9 0s9.4 24.6 0 33.9l-47 47 47 47c9.4 9.4 9.4 24.6 0 33.9s-24.6 9.4-33.9 0l-47-47-47 47c-9.4 9.4-24.6 9.4-33.9 0s-9.4-24.6 0-33.9l47-47-47-47c-9.4-9.4-9.4-24.6 0-33.9z" fill="currentColor"/></symbol><symbol id="close" viewBox="0 0 8.486 8.485">
  <g id="Group_70" data-name="Group 70" transform="translate(-203.257 -763.257)">
    <line id="Line_3" data-name="Line 3" x2="8" transform="translate(204.671 764.672) rotate(45)" fill="none" stroke="currentColor" stroke-linecap="round" stroke-width="2"/>
    <line id="Line_4" data-name="Line 4" y1="8" transform="translate(210.329 764.672) rotate(45)" fill="none" stroke="currentColor" stroke-linecap="round" stroke-width="2"/>
  </g>
</symbol><symbol id="compare" viewBox="0 0 16 16">
  <path id="&#x41e;&#x431;&#x44a;&#x435;&#x434;&#x438;&#x43d;&#x435;&#x43d;&#x438;&#x435;_12" data-name="&#x41e;&#x431;&#x44a;&#x435;&#x434;&#x438;&#x43d;&#x435;&#x43d;&#x438;&#x435; 12" d="M14,16V3h2V16ZM7,16V0H9V16ZM0,16V7H2v9Z" fill="currentColor"/>
</symbol><symbol id="discount" viewBox="0 0 384 512"><!--!Font Awesome Free 6.5.1 by @fontawesome - https://fontawesome.com License - https://fontawesome.com/license/free Copyright 2024 Fonticons, Inc.--><path d="M374.6 118.6c12.5-12.5 12.5-32.8 0-45.3s-32.8-12.5-45.3 0l-320 320c-12.5 12.5-12.5 32.8 0 45.3s32.8 12.5 45.3 0l320-320zM128 128A64 64 0 1 0 0 128a64 64 0 1 0 128 0zM384 384a64 64 0 1 0 -128 0 64 64 0 1 0 128 0z" fill="currentColor"/></symbol><symbol id="hit" viewBox="0 0 384 512"><!--!Font Awesome Free 6.5.1 by @fontawesome - https://fontawesome.com License - https://fontawesome.com/license/free Copyright 2024 Fonticons, Inc.--><path d="M153.6 29.9l16-21.3C173.6 3.2 180 0 186.7 0C198.4 0 208 9.6 208 21.3V43.5c0 13.1 5.4 25.7 14.9 34.7L307.6 159C356.4 205.6 384 270.2 384 337.7C384 434 306 512 209.7 512H192C86 512 0 426 0 320v-3.8c0-48.8 19.4-95.6 53.9-130.1l3.5-3.5c4.2-4.2 10-6.6 16-6.6C85.9 176 96 186.1 96 198.6V288c0 35.3 28.7 64 64 64s64-28.7 64-64v-3.9c0-18-7.2-35.3-19.9-48l-38.6-38.6c-24-24-37.5-56.7-37.5-90.7c0-27.7 9-54.8 25.6-76.9z" fill="currentColor"/></symbol><symbol id="horizontal-arrow" viewBox="0 0 17.426 12.603">
  <g id="&#x421;&#x433;&#x440;&#x443;&#x43f;&#x43f;&#x438;&#x440;&#x43e;&#x432;&#x430;&#x442;&#x44c;_4" data-name="&#x421;&#x433;&#x440;&#x443;&#x43f;&#x43f;&#x438;&#x440;&#x43e;&#x432;&#x430;&#x442;&#x44c; 4" transform="translate(1 1.414)">
    <path id="&#x41a;&#x43e;&#x43d;&#x442;&#x443;&#x440;_11" data-name="&#x41a;&#x43e;&#x43d;&#x442;&#x443;&#x440; 11" d="M2374.574,475H2390" transform="translate(-2374.574 -470.113)" fill="none" stroke="currentColor" stroke-linecap="round" stroke-width="2"/>
    <path id="&#x41a;&#x43e;&#x43d;&#x442;&#x443;&#x440;_12" data-name="&#x41a;&#x43e;&#x43d;&#x442;&#x443;&#x440; 12" d="M2388.106,469.773l4.887,4.887-4.887,4.887" transform="translate(-2377.567 -469.773)" fill="none" stroke="currentColor" stroke-linecap="round" stroke-linejoin="round" stroke-width="2"/>
  </g>
</symbol><symbol id="in-stock" viewBox="0 0 14 14">
  <path id="&#x412;&#x44b;&#x447;&#x438;&#x442;&#x430;&#x43d;&#x438;&#x435;_1" data-name="&#x412;&#x44b;&#x447;&#x438;&#x442;&#x430;&#x43d;&#x438;&#x435; 1" d="M7,14A7,7,0,1,1,11.8,1.909L6.313,7.135,4.026,4.63,2.252,6.569,6.313,10.63,13.2,3.744A7,7,0,0,1,7,14Z" fill="#12ba32"/>
</symbol><symbol id="like" viewBox="0 0 512 512"><!--!Font Awesome Free 6.5.1 by @fontawesome - https://fontawesome.com License - https://fontawesome.com/license/free Copyright 2024 Fonticons, Inc.--><path d="M104 224H24c-13.3 0-24 10.7-24 24v240c0 13.3 10.7 24 24 24h80c13.3 0 24-10.7 24-24V248c0-13.3-10.7-24-24-24zM64 472c-13.3 0-24-10.7-24-24s10.7-24 24-24 24 10.7 24 24-10.7 24-24 24zM384 81.5c0 42.4-26 66.2-33.3 94.5h101.7c33.4 0 59.4 27.7 59.6 58.1 .1 17.9-7.5 37.2-19.4 49.2l-.1 .1c9.8 23.3 8.2 56-9.3 79.5 8.7 25.9-.1 57.7-16.4 74.8 4.3 17.6 2.2 32.6-6.1 44.6C440.2 511.6 389.6 512 346.8 512l-2.8 0c-48.3 0-87.8-17.6-119.6-31.7-16-7.1-36.8-15.9-52.7-16.2-6.5-.1-11.8-5.5-11.8-12v-213.8c0-3.2 1.3-6.3 3.6-8.5 39.6-39.1 56.6-80.6 89.1-113.1 14.8-14.8 20.2-37.2 25.4-58.9C282.5 39.3 291.8 0 312 0c24 0 72 8 72 81.5z" fill="currentColor"/></symbol><symbol id="mail" viewBox="0 0 512 512"><!--!Font Awesome Free 6.5.1 by @fontawesome - https://fontawesome.com License - https://fontawesome.com/license/free Copyright 2024 Fonticons, Inc.--><path d="M48 64C21.5 64 0 85.5 0 112c0 15.1 7.1 29.3 19.2 38.4L236.8 313.6c11.4 8.5 27 8.5 38.4 0L492.8 150.4c12.1-9.1 19.2-23.3 19.2-38.4c0-26.5-21.5-48-48-48H48zM0 176V384c0 35.3 28.7 64 64 64H448c35.3 0 64-28.7 64-64V176L294.4 339.2c-22.8 17.1-54 17.1-76.8 0L0 176z" fill="currentColor"/></symbol><symbol id="manufacturer" viewBox="0 0 16.783 16.783">
  <g id="noun-ball-bearing-5330630" transform="translate(-2 -2)">
    <path id="&#x41a;&#x43e;&#x43d;&#x442;&#x443;&#x440;_213" data-name="&#x41a;&#x43e;&#x43d;&#x442;&#x443;&#x440; 213" d="M10.392,2a8.392,8.392,0,1,0,8.392,8.392A8.392,8.392,0,0,0,10.392,2Zm0,15.884a7.492,7.492,0,1,1,7.492-7.492A7.492,7.492,0,0,1,10.392,17.884Z" transform="translate(0 0)"/>
    <path id="&#x41a;&#x43e;&#x43d;&#x442;&#x443;&#x440;_215" data-name="&#x41a;&#x43e;&#x43d;&#x442;&#x443;&#x440; 215" d="M13.893,7a6.893,6.893,0,1,0,6.893,6.893A6.893,6.893,0,0,0,13.893,7Zm2.755,2.443a1.2,1.2,0,1,1,0,1.7A1.2,1.2,0,0,1,16.648,9.443ZM13.893,7.6a1.2,1.2,0,1,1-1.2,1.2A1.2,1.2,0,0,1,13.893,7.6ZM9.443,9.443a1.2,1.2,0,1,1,0,1.7A1.2,1.2,0,0,1,9.443,9.443ZM8.8,15.092a1.2,1.2,0,1,1,1.2-1.2A1.2,1.2,0,0,1,8.8,15.092Zm2.34,3.252a1.2,1.2,0,1,1,.352-.848A1.2,1.2,0,0,1,11.138,18.344Zm2.755,1.843a1.2,1.2,0,1,1,1.2-1.2A1.2,1.2,0,0,1,13.893,20.187Zm0-3a3.3,3.3,0,1,1,3.3-3.3,3.3,3.3,0,0,1-3.3,3.3Zm4.451,1.154A1.2,1.2,0,1,1,18.7,17.5a1.2,1.2,0,0,1-.352.848Zm1.843-4.451a1.2,1.2,0,1,1-1.2-1.2A1.2,1.2,0,0,1,20.187,13.893Z" transform="translate(-3.501 -3.502)"/>
  </g>
</symbol><symbol id="mobile-back" viewBox="0 0 17.999 13.414">
  <g id="&#x421;&#x433;&#x440;&#x443;&#x43f;&#x43f;&#x438;&#x440;&#x43e;&#x432;&#x430;&#x442;&#x44c;_279" data-name="&#x421;&#x433;&#x440;&#x443;&#x43f;&#x43f;&#x438;&#x440;&#x43e;&#x432;&#x430;&#x442;&#x44c; 279" transform="translate(-9.575 -143.586)">
    <path id="&#x41a;&#x43e;&#x43d;&#x442;&#x443;&#x440;_12" data-name="&#x41a;&#x43e;&#x43d;&#x442;&#x443;&#x440; 12" d="M2392.993,469.773l-4.887,4.877,4.887,4.877" transform="translate(-2377.531 -324.772)" fill="none" stroke="#546db0" stroke-linecap="round" stroke-linejoin="round" stroke-width="2"/>
    <path id="&#x41a;&#x43e;&#x43d;&#x442;&#x443;&#x440;_174" data-name="&#x41a;&#x43e;&#x43d;&#x442;&#x443;&#x440; 174" d="M-19490.965-11498.375c1.021.038,3.479-.169,3.539-2.9a3.3,3.3,0,0,0-3.539-3.235c-.883-.035-10.668,0-10.668,0" transform="translate(19514 11654.371)" fill="none" stroke="#546db0" stroke-linecap="round" stroke-width="2"/>
  </g>
</symbol><symbol id="phone" viewBox="0 0 14.517 14.517">
  <path id="&#x41a;&#x43e;&#x43d;&#x442;&#x443;&#x440;_73" data-name="&#x41a;&#x43e;&#x43d;&#x442;&#x443;&#x440; 73" d="M13.989-.182a.538.538,0,0,0,.4-.227.719.719,0,0,0,.142-.426A12.949,12.949,0,0,0,12.74-7.474,13.228,13.228,0,0,0,8-12.213,12.949,12.949,0,0,0,1.363-14a.719.719,0,0,0-.426.142.538.538,0,0,0-.227.4L.029-10.51a.64.64,0,0,0,.057.454.611.611,0,0,0,.34.312L3.6-8.382a.72.72,0,0,0,.426.043A.57.57,0,0,0,4.4-8.581l1.39-1.7A9.973,9.973,0,0,1,8.754-8.212a10.424,10.424,0,0,1,2.057,2.951l-1.7,1.419a.679.679,0,0,0-.227.355.707.707,0,0,0,.028.44L10.272.13a.626.626,0,0,0,.312.312A.64.64,0,0,0,11.038.5Z" transform="translate(14.528 0.517) rotate(180)" fill="currentColor"/>
</symbol><symbol id="pin" viewBox="0 0 8.275 11.033">
  <path id="&#x41a;&#x43e;&#x43d;&#x442;&#x443;&#x440;_101" data-name="&#x41a;&#x43e;&#x43d;&#x442;&#x443;&#x440; 101" d="M.706,3.818a.494.494,0,0,0,.431.215.494.494,0,0,0,.431-.215L3.012,1.749Q4.09.2,4.434-.341a6.069,6.069,0,0,0,.668-1.3,3.923,3.923,0,0,0,.172-1.218,3.993,3.993,0,0,0-.56-2.069A4.217,4.217,0,0,0,3.206-6.44,3.993,3.993,0,0,0,1.137-7a3.993,3.993,0,0,0-2.069.56A4.217,4.217,0,0,0-2.44-4.931,3.993,3.993,0,0,0-3-2.863a3.923,3.923,0,0,0,.172,1.218,6.069,6.069,0,0,0,.668,1.3Q-1.815.2-.737,1.749.146,3,.706,3.818Zm.431-4.956A1.66,1.66,0,0,1-.08-1.645,1.66,1.66,0,0,1-.586-2.863,1.66,1.66,0,0,1-.08-4.08a1.66,1.66,0,0,1,1.218-.506,1.66,1.66,0,0,1,1.218.506,1.66,1.66,0,0,1,.506,1.218,1.66,1.66,0,0,1-.506,1.218A1.66,1.66,0,0,1,1.137-1.139Z" transform="translate(3 7)" fill="currentColor"/>
</symbol><symbol id="search" viewBox="0 0 512 512"><!--!Font Awesome Free 6.5.1 by @fontawesome - https://fontawesome.com License - https://fontawesome.com/license/free Copyright 2024 Fonticons, Inc.--><path d="M416 208c0 45.9-14.9 88.3-40 122.7L502.6 457.4c12.5 12.5 12.5 32.8 0 45.3s-32.8 12.5-45.3 0L330.7 376c-34.4 25.2-76.8 40-122.7 40C93.1 416 0 322.9 0 208S93.1 0 208 0S416 93.1 416 208zM208 352a144 144 0 1 0 0-288 144 144 0 1 0 0 288z" fill="currentColor"/></symbol><symbol id="sort" viewBox="0 0 576 512"><!--!Font Awesome Free 6.5.1 by @fontawesome - https://fontawesome.com License - https://fontawesome.com/license/free Copyright 2024 Fonticons, Inc.--><path d="M151.6 469.6C145.5 476.2 137 480 128 480s-17.5-3.8-23.6-10.4l-88-96c-11.9-13-11.1-33.3 2-45.2s33.3-11.1 45.2 2L96 365.7V64c0-17.7 14.3-32 32-32s32 14.3 32 32V365.7l32.4-35.4c11.9-13 32.2-13.9 45.2-2s13.9 32.2 2 45.2l-88 96zM320 32h32c17.7 0 32 14.3 32 32s-14.3 32-32 32H320c-17.7 0-32-14.3-32-32s14.3-32 32-32zm0 128h96c17.7 0 32 14.3 32 32s-14.3 32-32 32H320c-17.7 0-32-14.3-32-32s14.3-32 32-32zm0 128H480c17.7 0 32 14.3 32 32s-14.3 32-32 32H320c-17.7 0-32-14.3-32-32s14.3-32 32-32zm0 128H544c17.7 0 32 14.3 32 32s-14.3 32-32 32H320c-17.7 0-32-14.3-32-32s14.3-32 32-32z" fill="currentColor"/></symbol><symbol id="time-stock" viewBox="0 0 10.5 14">
  <path id="&#x41a;&#x43e;&#x43d;&#x442;&#x443;&#x440;_110" data-name="&#x41a;&#x43e;&#x43d;&#x442;&#x443;&#x440; 110" d="M9.844-10.5a6.013,6.013,0,0,1-.93,3.295A4.52,4.52,0,0,1,6.535-5.25,4.52,4.52,0,0,1,8.914-3.295,6.013,6.013,0,0,1,9.844,0a.633.633,0,0,1,.465.191A.633.633,0,0,1,10.5.656v.437a.633.633,0,0,1-.191.465.633.633,0,0,1-.465.191H.656a.633.633,0,0,1-.465-.191A.633.633,0,0,1,0,1.094V.656A.633.633,0,0,1,.191.191.633.633,0,0,1,.656,0a6.013,6.013,0,0,1,.93-3.295A4.52,4.52,0,0,1,3.965-5.25,4.52,4.52,0,0,1,1.586-7.205,6.013,6.013,0,0,1,.656-10.5a.633.633,0,0,1-.465-.191A.633.633,0,0,1,0-11.156v-.437a.633.633,0,0,1,.191-.465.633.633,0,0,1,.465-.191H9.844a.633.633,0,0,1,.465.191.633.633,0,0,1,.191.465v.437a.633.633,0,0,1-.191.465A.633.633,0,0,1,9.844-10.5ZM5.25-6.562A2.21,2.21,0,0,0,6.672-7.1,3.62,3.62,0,0,0,7.711-8.545,5.019,5.019,0,0,0,8.094-10.5H2.406a5.019,5.019,0,0,0,.383,1.955A3.62,3.62,0,0,0,3.828-7.1,2.21,2.21,0,0,0,5.25-6.562Z" transform="translate(0 12.25)" fill="#f4b045"/>
</symbol><symbol id="triangle" viewBox="0 0 11 5">
  <path id="&#x41c;&#x43d;&#x43e;&#x433;&#x43e;&#x443;&#x433;&#x43e;&#x43b;&#x44c;&#x43d;&#x438;&#x43a;_10" data-name="&#x41c;&#x43d;&#x43e;&#x433;&#x43e;&#x443;&#x433;&#x43e;&#x43b;&#x44c;&#x43d;&#x438;&#x43a; 10" d="M4.827.612a1,1,0,0,1,1.345,0L9.086,3.26A1,1,0,0,1,8.413,5H2.587a1,1,0,0,1-.673-1.74Z" transform="translate(11 5) rotate(180)" fill="currentColor"/>
</symbol><symbol id="user" viewBox="0 0 13.351 15.259">
  <path id="&#x41a;&#x43e;&#x43d;&#x442;&#x443;&#x440;_99" data-name="&#x41a;&#x43e;&#x43d;&#x442;&#x443;&#x440; 99" d="M6.676-6.371a3.783,3.783,0,0,1-1.922-.507A3.711,3.711,0,0,1,3.368-8.263a3.782,3.782,0,0,1-.507-1.922,3.783,3.783,0,0,1,.507-1.922,3.711,3.711,0,0,1,1.386-1.386A3.782,3.782,0,0,1,6.676-14a3.782,3.782,0,0,1,1.922.507,3.711,3.711,0,0,1,1.386,1.386,3.783,3.783,0,0,1,.507,1.922,3.783,3.783,0,0,1-.507,1.922A3.711,3.711,0,0,1,8.6-6.877,3.783,3.783,0,0,1,6.676-6.371Zm2.682.954a3.909,3.909,0,0,1,2,.536,3.961,3.961,0,0,1,1.46,1.46,3.909,3.909,0,0,1,.536,2V-.172A1.38,1.38,0,0,1,12.934.842a1.38,1.38,0,0,1-1.013.417H1.431A1.38,1.38,0,0,1,.417.842,1.38,1.38,0,0,1,0-.172V-1.423a3.909,3.909,0,0,1,.536-2A3.961,3.961,0,0,1,2-4.88a3.909,3.909,0,0,1,2-.536H4.5a5.175,5.175,0,0,0,2.176.477,5.175,5.175,0,0,0,2.176-.477Z" transform="translate(0 14)" fill="currentColor"/>
</symbol></svg>