<?xml version="1.0" encoding="UTF-8"?><!DOCTYPE svg PUBLIC "-//W3C//DTD SVG 1.1//EN" "http://www.w3.org/Graphics/SVG/1.1/DTD/svg11.dtd"><svg xmlns="http://www.w3.org/2000/svg" xmlns:xlink="http://www.w3.org/1999/xlink"><symbol id="arrow" viewBox="0 0 7.301 12.603">
  <path id="&#x41a;&#x43e;&#x43d;&#x442;&#x443;&#x440;_12" data-name="&#x41a;&#x43e;&#x43d;&#x442;&#x443;&#x440; 12" d="M2392.993,469.773l-4.887,4.887,4.887,4.887" transform="translate(-2387.106 -468.359)" fill="none" stroke="currentColor" stroke-linecap="round" stroke-linejoin="round" stroke-width="2"/>
</symbol><symbol id="basket" viewBox="0 0 17.163 15.259">
  <path id="&#x41a;&#x43e;&#x43d;&#x442;&#x443;&#x440;_100" data-name="&#x41a;&#x43e;&#x43d;&#x442;&#x443;&#x440; 100" d="M15.736-5.029a.7.7,0,0,1-.253.417.691.691,0,0,1-.432.149H6.318L6.5-3.51h8.017a.65.65,0,0,1,.536.268.721.721,0,0,1,.149.6L15.02-1.9a1.614,1.614,0,0,1,.7.611,1.618,1.618,0,0,1,.253.879A1.606,1.606,0,0,1,15.482.767a1.606,1.606,0,0,1-1.177.492A1.606,1.606,0,0,1,13.128.767a1.623,1.623,0,0,1-.492-1.192A1.552,1.552,0,0,1,13.143-1.6H6.884A1.552,1.552,0,0,1,7.391-.425,1.623,1.623,0,0,1,6.9.767a1.606,1.606,0,0,1-1.177.492A1.606,1.606,0,0,1,4.545.767,1.606,1.606,0,0,1,4.053-.41a1.642,1.642,0,0,1,.224-.834,1.755,1.755,0,0,1,.611-.626L2.8-12.093H.715A.69.69,0,0,1,.209-12.3.69.69,0,0,1,0-12.808v-.477a.69.69,0,0,1,.209-.507A.69.69,0,0,1,.715-14h3.07a.653.653,0,0,1,.432.164.757.757,0,0,1,.253.4l.268,1.341H16.451a.679.679,0,0,1,.566.268.646.646,0,0,1,.119.6Z" transform="translate(0 14)" fill="currentColor"/>
</symbol><symbol id="catalog-trigger" viewBox="0 0 16 12">
  <path id="&#x41e;&#x431;&#x44a;&#x435;&#x434;&#x438;&#x43d;&#x435;&#x43d;&#x438;&#x435;_16" data-name="&#x41e;&#x431;&#x44a;&#x435;&#x434;&#x438;&#x43d;&#x435;&#x43d;&#x438;&#x435; 16" d="M10,15V4a1,1,0,0,1,2,0V15a1,1,0,0,1-2,0ZM5,15V1A1,1,0,0,1,7,1V15a1,1,0,0,1-2,0ZM0,15V8A1,1,0,0,1,2,8v7a1,1,0,0,1-2,0Z" transform="translate(16) rotate(90)" fill="currentColor"/>
</symbol><symbol id="circle-close" viewBox="0 0 512 512"><!--!Font Awesome Free 6.5.1 by @fontawesome - https://fontawesome.com License - https://fontawesome.com/license/free Copyright 2024 Fonticons, Inc.--><path d="M256 512A256 256 0 1 0 256 0a256 256 0 1 0 0 512zM175 175c9.4-9.4 24.6-9.4 33.9 0l47 47 47-47c9.4-9.4 24.6-9.4 33.9 0s9.4 24.6 0 33.9l-47 47 47 47c9.4 9.4 9.4 24.6 0 33.9s-24.6 9.4-33.9 0l-47-47-47 47c-9.4 9.4-24.6 9.4-33.9 0s-9.4-24.6 0-33.9l47-47-47-47c-9.4-9.4-9.4-24.6 0-33.9z" fill="currentColor"/></symbol><symbol id="close" viewBox="0 0 8.486 8.485">
  <g id="Group_70" data-name="Group 70" transform="translate(-203.257 -763.257)" opacity="0.5">
    <line id="Line_3" data-name="Line 3" x2="8" transform="translate(204.671 764.672) rotate(45)" fill="none" stroke="currentColor" stroke-linecap="round" stroke-width="2"/>
    <line id="Line_4" data-name="Line 4" y1="8" transform="translate(210.329 764.672) rotate(45)" fill="none" stroke="currentColor" stroke-linecap="round" stroke-width="2"/>
  </g>
</symbol><symbol id="compare" viewBox="0 0 16 16">
  <path id="&#x41e;&#x431;&#x44a;&#x435;&#x434;&#x438;&#x43d;&#x435;&#x43d;&#x438;&#x435;_12" data-name="&#x41e;&#x431;&#x44a;&#x435;&#x434;&#x438;&#x43d;&#x435;&#x43d;&#x438;&#x435; 12" d="M14,16V3h2V16ZM7,16V0H9V16ZM0,16V7H2v9Z" fill="currentColor"/>
</symbol><symbol id="horizontal-arrow" viewBox="0 0 17.426 12.603">
  <g id="&#x421;&#x433;&#x440;&#x443;&#x43f;&#x43f;&#x438;&#x440;&#x43e;&#x432;&#x430;&#x442;&#x44c;_4" data-name="&#x421;&#x433;&#x440;&#x443;&#x43f;&#x43f;&#x438;&#x440;&#x43e;&#x432;&#x430;&#x442;&#x44c; 4" transform="translate(1 1.414)">
    <path id="&#x41a;&#x43e;&#x43d;&#x442;&#x443;&#x440;_11" data-name="&#x41a;&#x43e;&#x43d;&#x442;&#x443;&#x440; 11" d="M2374.574,475H2390" transform="translate(-2374.574 -470.113)" fill="none" stroke="currentColor" stroke-linecap="round" stroke-width="2"/>
    <path id="&#x41a;&#x43e;&#x43d;&#x442;&#x443;&#x440;_12" data-name="&#x41a;&#x43e;&#x43d;&#x442;&#x443;&#x440; 12" d="M2388.106,469.773l4.887,4.887-4.887,4.887" transform="translate(-2377.567 -469.773)" fill="none" stroke="currentColor" stroke-linecap="round" stroke-linejoin="round" stroke-width="2"/>
  </g>
</symbol><symbol id="mail" viewBox="0 0 512 512"><!--!Font Awesome Free 6.5.1 by @fontawesome - https://fontawesome.com License - https://fontawesome.com/license/free Copyright 2024 Fonticons, Inc.--><path d="M48 64C21.5 64 0 85.5 0 112c0 15.1 7.1 29.3 19.2 38.4L236.8 313.6c11.4 8.5 27 8.5 38.4 0L492.8 150.4c12.1-9.1 19.2-23.3 19.2-38.4c0-26.5-21.5-48-48-48H48zM0 176V384c0 35.3 28.7 64 64 64H448c35.3 0 64-28.7 64-64V176L294.4 339.2c-22.8 17.1-54 17.1-76.8 0L0 176z" fill="currentColor"/></symbol><symbol id="phone" viewBox="0 0 14.517 14.517">
  <path id="&#x41a;&#x43e;&#x43d;&#x442;&#x443;&#x440;_73" data-name="&#x41a;&#x43e;&#x43d;&#x442;&#x443;&#x440; 73" d="M13.989-.182a.538.538,0,0,0,.4-.227.719.719,0,0,0,.142-.426A12.949,12.949,0,0,0,12.74-7.474,13.228,13.228,0,0,0,8-12.213,12.949,12.949,0,0,0,1.363-14a.719.719,0,0,0-.426.142.538.538,0,0,0-.227.4L.029-10.51a.64.64,0,0,0,.057.454.611.611,0,0,0,.34.312L3.6-8.382a.72.72,0,0,0,.426.043A.57.57,0,0,0,4.4-8.581l1.39-1.7A9.973,9.973,0,0,1,8.754-8.212a10.424,10.424,0,0,1,2.057,2.951l-1.7,1.419a.679.679,0,0,0-.227.355.707.707,0,0,0,.028.44L10.272.13a.626.626,0,0,0,.312.312A.64.64,0,0,0,11.038.5Z" transform="translate(14.528 0.517) rotate(180)" fill="currentColor"/>
</symbol><symbol id="pin" viewBox="0 0 8.275 11.033">
  <path id="&#x41a;&#x43e;&#x43d;&#x442;&#x443;&#x440;_101" data-name="&#x41a;&#x43e;&#x43d;&#x442;&#x443;&#x440; 101" d="M.706,3.818a.494.494,0,0,0,.431.215.494.494,0,0,0,.431-.215L3.012,1.749Q4.09.2,4.434-.341a6.069,6.069,0,0,0,.668-1.3,3.923,3.923,0,0,0,.172-1.218,3.993,3.993,0,0,0-.56-2.069A4.217,4.217,0,0,0,3.206-6.44,3.993,3.993,0,0,0,1.137-7a3.993,3.993,0,0,0-2.069.56A4.217,4.217,0,0,0-2.44-4.931,3.993,3.993,0,0,0-3-2.863a3.923,3.923,0,0,0,.172,1.218,6.069,6.069,0,0,0,.668,1.3Q-1.815.2-.737,1.749.146,3,.706,3.818Zm.431-4.956A1.66,1.66,0,0,1-.08-1.645,1.66,1.66,0,0,1-.586-2.863,1.66,1.66,0,0,1-.08-4.08a1.66,1.66,0,0,1,1.218-.506,1.66,1.66,0,0,1,1.218.506,1.66,1.66,0,0,1,.506,1.218,1.66,1.66,0,0,1-.506,1.218A1.66,1.66,0,0,1,1.137-1.139Z" transform="translate(3 7)" fill="currentColor"/>
</symbol><symbol id="search" viewBox="0 0 512 512"><!--!Font Awesome Free 6.5.1 by @fontawesome - https://fontawesome.com License - https://fontawesome.com/license/free Copyright 2024 Fonticons, Inc.--><path d="M416 208c0 45.9-14.9 88.3-40 122.7L502.6 457.4c12.5 12.5 12.5 32.8 0 45.3s-32.8 12.5-45.3 0L330.7 376c-34.4 25.2-76.8 40-122.7 40C93.1 416 0 322.9 0 208S93.1 0 208 0S416 93.1 416 208zM208 352a144 144 0 1 0 0-288 144 144 0 1 0 0 288z" fill="currentColor"/></symbol><symbol id="triangle" viewBox="0 0 11 5">
  <path id="&#x41c;&#x43d;&#x43e;&#x433;&#x43e;&#x443;&#x433;&#x43e;&#x43b;&#x44c;&#x43d;&#x438;&#x43a;_10" data-name="&#x41c;&#x43d;&#x43e;&#x433;&#x43e;&#x443;&#x433;&#x43e;&#x43b;&#x44c;&#x43d;&#x438;&#x43a; 10" d="M4.827.612a1,1,0,0,1,1.345,0L9.086,3.26A1,1,0,0,1,8.413,5H2.587a1,1,0,0,1-.673-1.74Z" transform="translate(11 5) rotate(180)" fill="currentColor"/>
</symbol><symbol id="user" viewBox="0 0 13.351 15.259">
  <path id="&#x41a;&#x43e;&#x43d;&#x442;&#x443;&#x440;_99" data-name="&#x41a;&#x43e;&#x43d;&#x442;&#x443;&#x440; 99" d="M6.676-6.371a3.783,3.783,0,0,1-1.922-.507A3.711,3.711,0,0,1,3.368-8.263a3.782,3.782,0,0,1-.507-1.922,3.783,3.783,0,0,1,.507-1.922,3.711,3.711,0,0,1,1.386-1.386A3.782,3.782,0,0,1,6.676-14a3.782,3.782,0,0,1,1.922.507,3.711,3.711,0,0,1,1.386,1.386,3.783,3.783,0,0,1,.507,1.922,3.783,3.783,0,0,1-.507,1.922A3.711,3.711,0,0,1,8.6-6.877,3.783,3.783,0,0,1,6.676-6.371Zm2.682.954a3.909,3.909,0,0,1,2,.536,3.961,3.961,0,0,1,1.46,1.46,3.909,3.909,0,0,1,.536,2V-.172A1.38,1.38,0,0,1,12.934.842a1.38,1.38,0,0,1-1.013.417H1.431A1.38,1.38,0,0,1,.417.842,1.38,1.38,0,0,1,0-.172V-1.423a3.909,3.909,0,0,1,.536-2A3.961,3.961,0,0,1,2-4.88a3.909,3.909,0,0,1,2-.536H4.5a5.175,5.175,0,0,0,2.176.477,5.175,5.175,0,0,0,2.176-.477Z" transform="translate(0 14)" fill="currentColor"/>
</symbol></svg>