<svg xmlns="http://www.w3.org/2000/svg" width="65.152" height="94.175" viewBox="0 0 65.152 94.175">
  <g id="Сгруппировать_30" data-name="Сгруппировать 30" transform="translate(-981.749 -3501.825)">
    <path id="Контур_33" data-name="Контур 33" d="M38.244,2.325a3.169,3.169,0,0,0,1.795,1.137A3.224,3.224,0,0,0,42.154,3.1l.1-.049a5.289,5.289,0,0,1,7.056,2.3l.043.091a5.437,5.437,0,0,1,.311.771,3.245,3.245,0,0,0,1.24,1.753,3.174,3.174,0,0,0,2.076.467,4.891,4.891,0,0,1,.942,0A5.243,5.243,0,0,1,57.207,9.96a5.3,5.3,0,0,1,1.537,3.288l.006.147a5.388,5.388,0,0,1-.006.789l-.015.12a3.131,3.131,0,0,0,.476,1.963A3.213,3.213,0,0,0,60.958,17.5l.141.052a5.357,5.357,0,0,1,.729.314,5.286,5.286,0,0,1,2.446,2.663l.036.1a5.287,5.287,0,0,1,.124,3.522l-.03.085a5.532,5.532,0,0,1-.331.779,3.238,3.238,0,0,0-.362,2.117l.009.048a3.172,3.172,0,0,0,1.122,1.751,5,5,0,0,1,.67.664,5.305,5.305,0,0,1,0,6.814l-.037.042a5.393,5.393,0,0,1-.627.615,3.166,3.166,0,0,0-1.137,1.8,3.221,3.221,0,0,0,.362,2.116l.051.106a5.72,5.72,0,0,1,.305.764,5.3,5.3,0,0,1-2.6,6.29l-.143.066a5.666,5.666,0,0,1-.727.289,3.245,3.245,0,0,0-1.753,1.24,3.174,3.174,0,0,0-.467,2.076,4.9,4.9,0,0,1,0,.943,5.243,5.243,0,0,1-1.525,3.281,5.3,5.3,0,0,1-3.288,1.537l-.147.006a5.386,5.386,0,0,1-.789-.006l-.12-.015a3.61,3.61,0,0,0-.881.047l5.983,14.423a1.567,1.567,0,1,1-2.895,1.2L49.594,60.012a5.625,5.625,0,0,1-.279.634A5.27,5.27,0,0,1,46.643,63.1l-.1.036a5.28,5.28,0,0,1-3.52.124l-.075-.026a5.589,5.589,0,0,1-.795-.339,3.248,3.248,0,0,0-2.112-.357L40,62.547a3.187,3.187,0,0,0-1.753,1.128,5.322,5.322,0,0,1-1.313,1.13L46.58,88.06l2.249-8.95a1.568,1.568,0,0,1,2.406-.912l7.846,4.682-1.376-3.316a1.567,1.567,0,0,1,2.895-1.2l3.187,7.682a1.566,1.566,0,0,1-2.251,1.943l-10.18-6.075-2.89,11.5a1.567,1.567,0,0,1-2.967.22l-11.326-27.3-11.326,27.3a1.567,1.567,0,0,1-2.967-.22l-2.89-11.5L6.811,87.987a1.564,1.564,0,0,1-2.248-1.942L16.358,57.6a3.714,3.714,0,0,0-.995-.038,4.892,4.892,0,0,1-.942,0A5.3,5.3,0,0,1,9.6,52.753L9.6,52.6a5.387,5.387,0,0,1,.006-.789l.015-.12a3.131,3.131,0,0,0-.476-1.963A3.213,3.213,0,0,0,7.389,48.5l-.135-.049a5.277,5.277,0,0,1-.729-.31l-.1-.057a5.278,5.278,0,0,1-2.352-2.614l-.036-.1a5.287,5.287,0,0,1-.124-3.522l.028-.083a5.508,5.508,0,0,1,.332-.781,3.233,3.233,0,0,0,.362-2.116l-.009-.048a3.172,3.172,0,0,0-1.122-1.751,5,5,0,0,1-.67-.664,5.305,5.305,0,0,1,0-6.814l.037-.042a5.394,5.394,0,0,1,.627-.615,3.168,3.168,0,0,0,1.137-1.8,3.226,3.226,0,0,0-.362-2.117l-.051-.106a5.721,5.721,0,0,1-.305-.764,5.289,5.289,0,0,1,2.607-6.288l.089-.042a5.461,5.461,0,0,1,.775-.313,3.245,3.245,0,0,0,1.753-1.241,3.174,3.174,0,0,0,.467-2.076,4.891,4.891,0,0,1,0-.942,5.243,5.243,0,0,1,1.525-3.281,5.3,5.3,0,0,1,3.288-1.537l.147-.006a5.389,5.389,0,0,1,.789.006l.12.015a3.131,3.131,0,0,0,1.963-.476,3.213,3.213,0,0,0,1.235-1.753l.052-.14a5.341,5.341,0,0,1,.313-.727A5.255,5.255,0,0,1,21.7,2.9l.1-.037a5.283,5.283,0,0,1,3.524-.121l.089.031a5.379,5.379,0,0,1,.776.334,3.248,3.248,0,0,0,2.112.357l.048-.009A3.187,3.187,0,0,0,30.1,2.325a5.36,5.36,0,0,1,.659-.66,5.307,5.307,0,0,1,6.816-.006l.046.04a5.4,5.4,0,0,1,.619.627Zm-16.5,64.059a1.567,1.567,0,0,1,2.895,1.2l-.68,1.638a1.567,1.567,0,1,1-2.895-1.2ZM16.749,78.413l2.312-5.573a1.567,1.567,0,0,1,2.895,1.2l-2.311,5.57,2.123,8.447L31.415,64.8a5.251,5.251,0,0,1-.646-.463l-.046-.04a5.4,5.4,0,0,1-.619-.627,3.169,3.169,0,0,0-1.795-1.137,3.224,3.224,0,0,0-2.116.362l-.135.062a5.23,5.23,0,0,1-4.353.138l-.093-.042a5.285,5.285,0,0,1-2.581-2.406l-.051-.108a5.548,5.548,0,0,1-.229-.534L9.266,82.879l7.482-4.465ZM39.431,6.539a6.259,6.259,0,0,1-3.59-2.2l-.274-.276a2.192,2.192,0,0,0-2.786,0l-.274.276a6.27,6.27,0,0,1-3.517,2.186l-.073.016a6.3,6.3,0,0,1-4.169-.656l-.366-.152a2.174,2.174,0,0,0-1.421.038l-.054.023a2.157,2.157,0,0,0-1.089,1l-.152.367a6.3,6.3,0,0,1-2.485,3.409,6.233,6.233,0,0,1-3.949.994,3.431,3.431,0,0,0-.54-.006,2.145,2.145,0,0,0-1.961,1.961,1.92,1.92,0,0,0,0,.4,6.3,6.3,0,0,1-.987,4.092,6.3,6.3,0,0,1-3.409,2.487l-.374.152A2.159,2.159,0,0,0,6.9,23.2l.153.368a6.3,6.3,0,0,1,.656,4.17,6.263,6.263,0,0,1-2.209,3.589l-.267.273a2.189,2.189,0,0,0,0,2.789l.273.273A6.294,6.294,0,0,1,7.7,38.185l.016.072a6.3,6.3,0,0,1-.656,4.169l-.153.368a2.179,2.179,0,0,0,.04,1.42l.023.053A2.169,2.169,0,0,0,7.9,45.33a3.077,3.077,0,0,0,.429.178,6.3,6.3,0,0,1,3.409,2.485,6.233,6.233,0,0,1,.994,3.949,3.446,3.446,0,0,0-.006.541,2.15,2.15,0,0,0,.624,1.337,2.122,2.122,0,0,0,1.337.624,1.92,1.92,0,0,0,.4,0,6.108,6.108,0,0,1,6.578,4.4l.151.365a2.162,2.162,0,0,0,1.03.976l.062.023a2.166,2.166,0,0,0,1.477.062l.363-.151a6.094,6.094,0,0,1,7.759,1.546l.274.276a2.192,2.192,0,0,0,2.786,0l.274-.276a6.27,6.27,0,0,1,3.517-2.186l.073-.016a6.3,6.3,0,0,1,4.169.656,1.714,1.714,0,0,0,.33.143l.028.009a2.193,2.193,0,0,0,1.427-.038l.056-.025a2.157,2.157,0,0,0,1.09-1l.151-.365a6.31,6.31,0,0,1,2.485-3.41,6.219,6.219,0,0,1,3.952-.992,3.383,3.383,0,0,0,.536.006,2.145,2.145,0,0,0,1.961-1.961,1.933,1.933,0,0,0,0-.4,6.111,6.111,0,0,1,4.4-6.578l.368-.152a2.155,2.155,0,0,0,1.06-2.562l-.153-.368a6.084,6.084,0,0,1,1.552-7.758l.267-.273a2.189,2.189,0,0,0,0-2.789l-.273-.273a6.294,6.294,0,0,1-2.186-3.517l-.016-.072a6.3,6.3,0,0,1,.656-4.17l.153-.368a2.167,2.167,0,0,0-.04-1.419l-.023-.054a2.167,2.167,0,0,0-1-1.094l-.368-.146a6.3,6.3,0,0,1-3.409-2.487,6.229,6.229,0,0,1-.994-3.949,3.432,3.432,0,0,0,.006-.54,2.145,2.145,0,0,0-1.961-1.961,1.92,1.92,0,0,0-.4,0,6.3,6.3,0,0,1-4.092-.987,6.3,6.3,0,0,1-2.485-3.409l-.152-.373a2.159,2.159,0,0,0-2.565-1.054l-.366.152a6.289,6.289,0,0,1-4.169.655Z" transform="translate(980.151 3501.401)" fill="#666"/>
    <path id="Контур_34" data-name="Контур 34" d="M48.825,30a1.563,1.563,0,1,1,3.065-.613c.121.6.213,1.206.272,1.8.062.627.1,1.235.1,1.816a18.206,18.206,0,0,1-5.349,12.91L46.816,46A18.256,18.256,0,0,1,21.087,20.09l.093-.085a18.247,18.247,0,0,1,23.1-2.091A1.566,1.566,0,0,1,42.514,20.5a15.138,15.138,0,0,0-19.134,1.729l-.073.079A15.122,15.122,0,0,0,44.615,43.772l.074-.079A15.077,15.077,0,0,0,49.118,33c0-.541-.025-1.046-.07-1.509a15.063,15.063,0,0,0-.222-1.5Zm-24.88,2.667a1.565,1.565,0,0,1,2.207-2.22l7.716,7.713,17.01-21.2a1.566,1.566,0,1,1,2.44,1.963L35.107,41.6a1.566,1.566,0,0,1-2.214.006l-8.948-8.946Z" transform="translate(979.625 3501.401)" fill="red"/>
  </g>
</svg>
