<svg xmlns="http://www.w3.org/2000/svg" width="77.547" height="94.175" viewBox="0 0 77.547 94.175">
  <g id="Сгруппировать_33" data-name="Сгруппировать 33" transform="translate(-94.5 -62.4)">
    <g id="Сгруппировать_59" data-name="Сгруппировать 59" transform="translate(94.5 62.4)">
      <g id="Сгруппировать_58" data-name="Сгруппировать 58" transform="translate(0 0)">
        <g id="Сгруппировать_36" data-name="Сгруппировать 36" transform="translate(0 56.231)">
          <g id="Сгруппировать_33-2" data-name="Сгруппировать 33">
            <path id="Контур_35" data-name="Контур 35" d="M106.684,314.055h-10.7a1.483,1.483,0,0,1-1.481-1.481V284.017a1.477,1.477,0,0,1,.562-1.149,1.423,1.423,0,0,1,1.226-.281l16.271,3.576a1.4,1.4,0,0,1,.92.639,1.533,1.533,0,0,1,.2,1.1l-5.568,25.006a1.475,1.475,0,0,1-1.43,1.149Zm-9.246-2.937h8.071l4.981-22.4-13.052-2.861v25.262Z" transform="translate(-94.5 -282.548)" fill="#666" fill-rule="evenodd"/>
          </g>
          <g id="Сгруппировать_34" data-name="Сгруппировать 34" transform="translate(11.583 7.511)">
            <path id="Контур_36" data-name="Контур 36" d="M169.313,342.388a34.275,34.275,0,0,1-4.547-.307,33.573,33.573,0,0,1-10.575-3.32l-13.538-6.973a1.479,1.479,0,1,1,1.354-2.631l13.563,6.948a30.33,30.33,0,0,0,19.719,2.733c7.126-1.456,16.96-4.5,23.422-10.881l-1.226-.587a12.138,12.138,0,0,0-9.4-.536,47.713,47.713,0,0,1-9.936,2.4,1.479,1.479,0,0,1-1.328-.536,1.535,1.535,0,0,1-.332-1.022,7.392,7.392,0,0,0-6.232-7.612c-8.531-1.43-21.66-4.342-25.466-5.211a1.448,1.448,0,0,1-1.1-1.762,1.467,1.467,0,0,1,1.762-1.1c3.806.868,16.832,3.78,25.313,5.185a10.4,10.4,0,0,1,8.633,8.94,44.6,44.6,0,0,0,7.714-2.018,14.47,14.47,0,0,1,5.9-.843,15.11,15.11,0,0,1,5.773,1.507l1.252.613a2.923,2.923,0,0,1,.792,4.7,38.269,38.269,0,0,1-12.107,7.816,65.176,65.176,0,0,1-12.822,3.882,38.347,38.347,0,0,1-6.59.613Zm7.177-14.636Zm.026-.306Zm.051-.153c-.026.051-.026.1-.051.153.026-.051.026-.1.051-.153Zm0,0Zm0,0Zm0,0Zm0,0Zm0,0Z" transform="translate(-139.849 -311.955)" fill="#666" fill-rule="evenodd"/>
          </g>
          <g id="Сгруппировать_35" data-name="Сгруппировать 35" transform="translate(27.129 18.611)">
            <path id="Контур_37" data-name="Контур 37" d="M218.154,361.9a40.589,40.589,0,0,1-10.6-1.379,28.162,28.162,0,0,1-6.1-2.35,1.476,1.476,0,1,1,1.481-2.554,26.228,26.228,0,0,0,5.517,2.094,38.1,38.1,0,0,0,14.636.945,1.467,1.467,0,1,1,.358,2.912A42.872,42.872,0,0,1,218.154,361.9Z" transform="translate(-200.711 -355.411)" fill="#666" fill-rule="evenodd"/>
          </g>
        </g>
        <g id="Сгруппировать_57" data-name="Сгруппировать 57" transform="translate(14.432)">
          <g id="Сгруппировать_37" data-name="Сгруппировать 37" transform="translate(24.981)">
            <path id="Контур_38" data-name="Контур 38" d="M260.422,71.11a1.483,1.483,0,0,1-1.481-1.481V65.337h-7.177v4.291a1.481,1.481,0,1,1-2.963,0V63.881a1.483,1.483,0,0,1,1.481-1.481H260.4a1.483,1.483,0,0,1,1.481,1.481v5.747A1.445,1.445,0,0,1,260.422,71.11Z" transform="translate(-248.8 -62.4)" fill="red" fill-rule="evenodd"/>
          </g>
          <g id="Сгруппировать_38" data-name="Сгруппировать 38" transform="translate(25.006 54.406)">
            <path id="Контур_39" data-name="Контур 39" d="M260.5,284.11H250.381a1.483,1.483,0,0,1-1.481-1.481v-5.747a1.481,1.481,0,0,1,2.963,0v4.291h7.177v-4.291a1.481,1.481,0,0,1,2.963,0v5.747A1.522,1.522,0,0,1,260.5,284.11Z" transform="translate(-248.9 -275.4)" fill="red" fill-rule="evenodd"/>
          </g>
          <g id="Сгруппировать_39" data-name="Сгруппировать 39" transform="translate(5.249 5.275)">
            <path id="Контур_40" data-name="Контур 40" d="M177.08,97.188a1.536,1.536,0,0,1-1.047-.434l-4.061-4.061a1.48,1.48,0,0,1,0-2.069l7.152-7.152a1.48,1.48,0,0,1,2.069,0l4.061,4.061a1.463,1.463,0,1,1-2.069,2.069l-3.04-3.04-5.057,5.057,3.04,3.04a1.48,1.48,0,0,1,0,2.069A1.457,1.457,0,0,1,177.08,97.188Z" transform="translate(-171.55 -83.05)" fill="red" fill-rule="evenodd"/>
          </g>
          <g id="Сгруппировать_40" data-name="Сгруппировать 40" transform="translate(43.716 43.767)">
            <path id="Контур_41" data-name="Контур 41" d="M327.68,247.862a1.536,1.536,0,0,1-1.047-.434l-4.061-4.061a1.463,1.463,0,1,1,2.069-2.069l3.04,3.04,5.057-5.057-3.04-3.04a1.463,1.463,0,0,1,2.069-2.069l4.061,4.061a1.447,1.447,0,0,1,.434,1.047,1.49,1.49,0,0,1-.434,1.047l-7.152,7.152A1.457,1.457,0,0,1,327.68,247.862Z" transform="translate(-322.15 -233.75)" fill="red" fill-rule="evenodd"/>
          </g>
          <g id="Сгруппировать_41" data-name="Сгруппировать 41" transform="translate(0 25.006)">
            <path id="Контур_42" data-name="Контур 42" d="M158.229,173.378h-5.747A1.483,1.483,0,0,1,151,171.9V161.781a1.483,1.483,0,0,1,1.481-1.481h5.747a1.481,1.481,0,0,1,0,2.963h-4.291v7.177h4.291a1.483,1.483,0,0,1,1.481,1.481A1.512,1.512,0,0,1,158.229,173.378Z" transform="translate(-151 -160.3)" fill="red" fill-rule="evenodd"/>
          </g>
          <g id="Сгруппировать_42" data-name="Сгруппировать 42" transform="translate(54.406 24.981)">
            <path id="Контур_43" data-name="Контур 43" d="M371.229,173.3h-5.747a1.481,1.481,0,0,1,0-2.963h4.291v-7.177h-4.291a1.481,1.481,0,0,1,0-2.963h5.747a1.482,1.482,0,0,1,1.481,1.481V171.8A1.488,1.488,0,0,1,371.229,173.3Z" transform="translate(-364 -160.2)" fill="red" fill-rule="evenodd"/>
          </g>
          <g id="Сгруппировать_43" data-name="Сгруппировать 43" transform="translate(0 25.006)">
            <path id="Контур_44" data-name="Контур 44" d="M158.229,173.378h-5.747A1.483,1.483,0,0,1,151,171.9V161.781a1.483,1.483,0,0,1,1.481-1.481h5.747a1.481,1.481,0,0,1,0,2.963h-4.291v7.177h4.291a1.483,1.483,0,0,1,1.481,1.481A1.512,1.512,0,0,1,158.229,173.378Z" transform="translate(-151 -160.3)" fill="red" fill-rule="evenodd"/>
          </g>
          <g id="Сгруппировать_44" data-name="Сгруппировать 44" transform="translate(54.406 24.981)">
            <path id="Контур_45" data-name="Контур 45" d="M371.229,173.3h-5.747a1.481,1.481,0,0,1,0-2.963h4.291v-7.177h-4.291a1.481,1.481,0,0,1,0-2.963h5.747a1.482,1.482,0,0,1,1.481,1.481V171.8A1.488,1.488,0,0,1,371.229,173.3Z" transform="translate(-364 -160.2)" fill="red" fill-rule="evenodd"/>
          </g>
          <g id="Сгруппировать_45" data-name="Сгруппировать 45" transform="translate(5.223 43.742)">
            <path id="Контур_46" data-name="Контур 46" d="M180.071,247.788a1.536,1.536,0,0,1-1.047-.434l-7.152-7.152a1.48,1.48,0,0,1,0-2.069l4.061-4.061A1.463,1.463,0,0,1,178,236.14l-3.04,3.04,5.057,5.057,3.04-3.04a1.463,1.463,0,1,1,2.069,2.069l-4.061,4.061A1.236,1.236,0,0,1,180.071,247.788Z" transform="translate(-171.45 -233.65)" fill="red" fill-rule="evenodd"/>
          </g>
          <g id="Сгруппировать_46" data-name="Сгруппировать 46" transform="translate(43.742 5.262)">
            <path id="Контур_47" data-name="Контур 47" d="M330.845,97.151a1.536,1.536,0,0,1-1.047-.434,1.48,1.48,0,0,1,0-2.069l3.04-3.04L327.78,86.55l-3.04,3.014a1.463,1.463,0,0,1-2.069-2.069l4.061-4.061a1.48,1.48,0,0,1,2.095,0l7.152,7.152a1.48,1.48,0,0,1,0,2.094l-4.087,4.036A1.536,1.536,0,0,1,330.845,97.151Z" transform="translate(-322.25 -83)" fill="red" fill-rule="evenodd"/>
          </g>
          <g id="Сгруппировать_47" data-name="Сгруппировать 47" transform="translate(35.119 5.771)">
            <path id="Контур_48" data-name="Контур 48" d="M298.559,91.483a1.584,1.584,0,0,1-.817-.23,22.853,22.853,0,0,0-8.071-3.346,1.473,1.473,0,1,1,.587-2.886,26.293,26.293,0,0,1,9.093,3.755,1.45,1.45,0,0,1,.409,2.043A1.369,1.369,0,0,1,298.559,91.483Z" transform="translate(-288.494 -84.994)" fill="red" fill-rule="evenodd"/>
          </g>
          <g id="Сгруппировать_48" data-name="Сгруппировать 48" transform="translate(5.745 16.45)">
            <path id="Контур_49" data-name="Контур 49" d="M174.977,138.322a1.243,1.243,0,0,1-.306-.026,1.482,1.482,0,0,1-1.149-1.737,26.294,26.294,0,0,1,3.755-9.093,1.474,1.474,0,0,1,2.452,1.635,22.853,22.853,0,0,0-3.346,8.071A1.421,1.421,0,0,1,174.977,138.322Z" transform="translate(-173.494 -126.803)" fill="red" fill-rule="evenodd"/>
          </g>
          <g id="Сгруппировать_49" data-name="Сгруппировать 49" transform="translate(50.874 16.443)">
            <path id="Контур_50" data-name="Контур 50" d="M355.186,138.3a1.451,1.451,0,0,1-1.43-1.175,22.853,22.853,0,0,0-3.346-8.071,1.474,1.474,0,0,1,2.452-1.635,25.811,25.811,0,0,1,3.755,9.093,1.482,1.482,0,0,1-1.149,1.737A.505.505,0,0,1,355.186,138.3Z" transform="translate(-350.173 -126.773)" fill="red" fill-rule="evenodd"/>
          </g>
          <g id="Сгруппировать_50" data-name="Сгруппировать 50" transform="translate(35.145 50.874)">
            <path id="Контур_51" data-name="Контур 51" d="M290.051,268.068a1.451,1.451,0,0,1-1.43-1.175,1.482,1.482,0,0,1,1.149-1.737,22.854,22.854,0,0,0,8.071-3.346,1.474,1.474,0,1,1,1.635,2.452,25.809,25.809,0,0,1-9.093,3.755A.812.812,0,0,1,290.051,268.068Z" transform="translate(-288.594 -261.573)" fill="red" fill-rule="evenodd"/>
          </g>
          <g id="Сгруппировать_51" data-name="Сгруппировать 51" transform="translate(5.771 35.145)">
            <path id="Контур_52" data-name="Контур 52" d="M178.6,211.515a1.442,1.442,0,0,1-1.226-.664,25.81,25.81,0,0,1-3.755-9.093,1.473,1.473,0,1,1,2.886-.587,22.852,22.852,0,0,0,3.346,8.071,1.5,1.5,0,0,1-.409,2.043A1.747,1.747,0,0,1,178.6,211.515Z" transform="translate(-173.594 -199.994)" fill="red" fill-rule="evenodd"/>
          </g>
          <g id="Сгруппировать_52" data-name="Сгруппировать 52" transform="translate(16.45 50.881)">
            <path id="Контур_53" data-name="Контур 53" d="M225.466,268.09a1.242,1.242,0,0,1-.307-.026,26.294,26.294,0,0,1-9.093-3.755,1.474,1.474,0,0,1,1.635-2.452,22.853,22.853,0,0,0,8.071,3.346,1.482,1.482,0,0,1,1.149,1.737A1.549,1.549,0,0,1,225.466,268.09Z" transform="translate(-215.403 -261.603)" fill="red" fill-rule="evenodd"/>
          </g>
          <g id="Сгруппировать_53" data-name="Сгруппировать 53" transform="translate(50.856 35.145)">
            <path id="Контур_54" data-name="Контур 54" d="M351.584,211.515a1.584,1.584,0,0,1-.817-.23,1.45,1.45,0,0,1-.409-2.043,22.853,22.853,0,0,0,3.346-8.071,1.473,1.473,0,1,1,2.886.587,26.294,26.294,0,0,1-3.755,9.093A1.519,1.519,0,0,1,351.584,211.515Z" transform="translate(-350.103 -199.994)" fill="red" fill-rule="evenodd"/>
          </g>
          <g id="Сгруппировать_54" data-name="Сгруппировать 54" transform="translate(16.468 5.771)">
            <path id="Контур_55" data-name="Контур 55" d="M216.936,91.483a1.442,1.442,0,0,1-1.226-.664,1.5,1.5,0,0,1,.409-2.043,25.81,25.81,0,0,1,9.093-3.755,1.473,1.473,0,0,1,.587,2.886,22.853,22.853,0,0,0-8.071,3.346A1.434,1.434,0,0,1,216.936,91.483Z" transform="translate(-215.473 -84.994)" fill="red" fill-rule="evenodd"/>
          </g>
          <g id="Сгруппировать_55" data-name="Сгруппировать 55" transform="translate(11.826 11.852)">
            <path id="Контур_56" data-name="Контур 56" d="M217.019,148.238a19.709,19.709,0,1,1,13.946-5.773,19.591,19.591,0,0,1-13.946,5.773Zm0-36.526a16.807,16.807,0,1,0,16.807,16.807A16.82,16.82,0,0,0,217.019,111.712Z" transform="translate(-197.3 -108.8)" fill="red" fill-rule="evenodd"/>
          </g>
          <g id="Сгруппировать_56" data-name="Сгруппировать 56" transform="translate(21.405 21.884)">
            <path id="Контур_57" data-name="Контур 57" d="M248.567,177.123a1.483,1.483,0,0,1-1.481-1.481V165.425a1.423,1.423,0,0,1,.868-1.328,7.255,7.255,0,0,0,2.094-11.75v4.5a1.45,1.45,0,0,1-.741,1.277l-3.627,2.043a1.431,1.431,0,0,1-1.43,0l-3.627-2.043a1.45,1.45,0,0,1-.741-1.277v-4.5a7.255,7.255,0,0,0,2.094,11.75,1.492,1.492,0,0,1,.868,1.328v10.217a1.481,1.481,0,1,1-2.963,0v-9.323a10.211,10.211,0,0,1,.868-18.11,1.447,1.447,0,0,1,1.4.1,1.5,1.5,0,0,1,.664,1.226v6.411l2.146,1.2,2.146-1.2v-6.36a1.459,1.459,0,0,1,2.069-1.328,10.211,10.211,0,0,1,.868,18.11v9.323A1.473,1.473,0,0,1,248.567,177.123Z" transform="translate(-234.8 -148.075)" fill="red" fill-rule="evenodd"/>
          </g>
        </g>
      </g>
    </g>
  </g>
</svg>
