<svg xmlns="http://www.w3.org/2000/svg" width="93.763" height="93.763" viewBox="0 0 93.763 93.763">
  <g id="Сгруппировать_60" data-name="Сгруппировать 60" transform="translate(-1 -1)">
    <path id="Контур_58" data-name="Контур 58" d="M82.664,47H1v3.025H82.664a9.074,9.074,0,1,1,0,18.148H1V71.2H82.664a12.1,12.1,0,1,0,0-24.2Z" transform="translate(0 23.566)" fill="#666"/>
    <path id="Контур_59" data-name="Контур 59" d="M63.1,57.049A6.049,6.049,0,1,0,57.049,63.1,6.055,6.055,0,0,0,63.1,57.049Zm-9.074,0a3.025,3.025,0,1,1,3.025,3.025A3.028,3.028,0,0,1,54.025,57.049Z" transform="translate(25.615 25.615)" fill="#666"/>
    <path id="Контур_60" data-name="Контур 60" d="M53.1,57.049A6.049,6.049,0,1,0,47.049,63.1,6.055,6.055,0,0,0,53.1,57.049Zm-9.074,0a3.025,3.025,0,1,1,3.025,3.025A3.028,3.028,0,0,1,44.025,57.049Z" transform="translate(20.492 25.615)" fill="#666"/>
    <path id="Контур_61" data-name="Контур 61" d="M43.1,57.049A6.049,6.049,0,1,0,37.049,63.1,6.055,6.055,0,0,0,43.1,57.049Zm-9.074,0a3.025,3.025,0,1,1,3.025,3.025A3.028,3.028,0,0,1,34.025,57.049Z" transform="translate(15.369 25.615)" fill="#666"/>
    <path id="Контур_62" data-name="Контур 62" d="M33.1,57.049A6.049,6.049,0,1,0,27.049,63.1,6.055,6.055,0,0,0,33.1,57.049Zm-9.074,0a3.025,3.025,0,1,1,3.025,3.025A3.028,3.028,0,0,1,24.025,57.049Z" transform="translate(10.246 25.615)" fill="#666"/>
    <path id="Контур_63" data-name="Контур 63" d="M23.1,57.049A6.049,6.049,0,1,0,17.049,63.1,6.055,6.055,0,0,0,23.1,57.049Zm-9.074,0a3.025,3.025,0,1,1,3.025,3.025A3.028,3.028,0,0,1,14.025,57.049Z" transform="translate(5.123 25.615)" fill="#666"/>
    <path id="Контур_64" data-name="Контур 64" d="M13.1,57.049A6.049,6.049,0,1,0,7.049,63.1,6.055,6.055,0,0,0,13.1,57.049Zm-9.074,0a3.025,3.025,0,1,1,3.025,3.025A3.028,3.028,0,0,1,4.025,57.049Z" transform="translate(0 25.615)" fill="#666"/>
    <path id="Контур_65" data-name="Контур 65" d="M60.925,10.694a7.388,7.388,0,0,0-.7-.581V1H57.2V8.714a7.563,7.563,0,0,0-3.025,0V1H51.148v9.113a7.624,7.624,0,0,0-.7.581L33,19.74V39.164l5.115,10.229h3.959v9.074H69.3V49.394h3.959l5.115-10.229V19.74Zm-.7,5.429a4.537,4.537,0,1,1-4.537-4.537A4.542,4.542,0,0,1,60.221,16.123Zm6.049,18.148H45.1V27.706l9.612-4.12a4.874,4.874,0,0,0,1.948,0l9.612,4.12Zm-26.287,12.1-3.959-7.918V21.579l12.186-6.321a7.416,7.416,0,0,0-.088.865A7.517,7.517,0,0,0,50.9,21.93l-8.827,3.782v5.534H39.049v3.025h3.025V37.3H39.049V40.32h3.025v6.049Zm26.287,9.074H45.1V37.3H66.271V55.443Zm9.074-16.992-3.959,7.918H69.3V40.32H72.32V37.3H69.3V34.271H72.32V31.246H69.3V25.713L60.468,21.93a7.517,7.517,0,0,0,2.778-5.807,7.414,7.414,0,0,0-.088-.865l12.186,6.321Z" transform="translate(16.394)" fill="red"/>
    <path id="Контур_66" data-name="Контур 66" d="M10.074,58.467v9.074H37.3V58.467h3.959l5.115-10.229V28.814L28.925,19.768a7.831,7.831,0,0,0-.7-.581V1H25.2V17.788a7.563,7.563,0,0,0-3.025,0V1H19.148V19.187a7.625,7.625,0,0,0-.7.581L1,28.814V48.238L6.115,58.467ZM23.685,32.758a7.4,7.4,0,0,0,.974-.1l9.612,4.12v6.565H13.1V36.78l9.612-4.12A7.4,7.4,0,0,0,23.685,32.758ZM34.271,64.517H13.1V46.369H34.271V64.517Zm9.074-16.992-3.959,7.918H37.3V49.394H40.32V46.369H37.3V43.344H40.32V40.32H37.3V34.786L28.468,31A7.517,7.517,0,0,0,31.246,25.2a7.414,7.414,0,0,0-.088-.865l12.186,6.321ZM28.221,25.2a4.537,4.537,0,1,1-4.537-4.537A4.542,4.542,0,0,1,28.221,25.2Zm-24.2,5.456,12.186-6.321a7.414,7.414,0,0,0-.088.865A7.517,7.517,0,0,0,18.9,31l-8.827,3.782V40.32H7.049v3.025h3.025v3.025H7.049v3.025h3.025v6.049H7.984L4.025,47.524Z" fill="red"/>
    <rect id="Прямоугольник_100" data-name="Прямоугольник 100" width="3" height="3" transform="translate(77 49.763)" fill="red"/>
    <rect id="Прямоугольник_101" data-name="Прямоугольник 101" width="3" height="3" transform="translate(28 58.763)" fill="red"/>
  </g>
</svg>
