<svg xmlns="http://www.w3.org/2000/svg" width="92.65" height="94.175" viewBox="0 0 92.65 94.175">
  <g id="Сгруппировать_29" data-name="Сгруппировать 29" transform="translate(-986.249 -3337.237)">
    <g id="noun-ecology-5057977" transform="translate(979.198 3330.871)">
      <g id="_1" data-name="1" transform="translate(7.051 6.367)">
        <path id="Контур_32" data-name="Контур 32" d="M12.437,70.093a1.453,1.453,0,0,1-1.885-.819c-.543-1.378-1.006-2.721-1.41-4.036l0-.01c-5.887-19.176,2.314-31.572,4.505-34.422-.614-2.579-2.112-11.17,3.251-17.549,3.853-4.586,10.3-6.891,19.215-6.891a64.324,64.324,0,0,1,7.673.494,1.454,1.454,0,0,1,1.123,2.1,155.588,155.588,0,0,0-6.2,14.953c-2.835,7.73-11.458,9.172-17.5,9.172a39.14,39.14,0,0,1-5.375-.37c-1.8,2.388-7.767,11.595-5.282,26A15.553,15.553,0,0,1,15.639,52c-.155-2.284-.076-8.132,4.186-11.956,2.485-2.23,5.908-3.347,10.232-3.347a36.317,36.317,0,0,1,8.406,1.143,21.723,21.723,0,1,1-6.6,19.575,1.452,1.452,0,0,1,1.186-1.677,1.531,1.531,0,0,1,.243-.02h0a1.457,1.457,0,0,1,.935.337,1.438,1.438,0,0,1,.5.869,18.885,18.885,0,1,0,6.032-17.24,1.43,1.43,0,0,1-.244.684,109.644,109.644,0,0,0-5.8,9.819c-2.07,3.858-5.965,5.009-9.608,5.129a28.2,28.2,0,1,0,21-28.947,1.453,1.453,0,0,1-.738-2.811A31.183,31.183,0,1,1,22.191,55.226a28.124,28.124,0,0,1-4.8-.913c-1.247.877-4.6,3.818-5.373,10.364.362,1.152.767,2.326,1.242,3.531a1.455,1.455,0,0,1-.819,1.885ZM18.531,51.61a24.472,24.472,0,0,0,5.923.818c2.994,0,6.172-.77,7.7-3.612,2.105-3.931,3.792-6.718,4.829-8.358a32.037,32.037,0,0,0-6.939-.866c-3.557,0-6.321.867-8.26,2.6-3.2,2.856-3.346,7.477-3.249,9.417Zm-2.12-21.753a38.028,38.028,0,0,0,4.746.3c5.256,0,12.593-1.158,14.823-7.245,2.41-6.568,4.363-11.051,5.437-13.383q-2.832-.262-5.358-.262c-7.972,0-13.648,1.955-16.929,5.845-4.29,5.089-3.249,12.27-2.72,14.745Z" transform="translate(-7.051 -6.367)" fill="red"/>
      </g>
    </g>
    <g id="noun-ecology-5057977-2" data-name="noun-ecology-5057977" transform="translate(979.198 3331.283)">
      <g id="_1-2" data-name="1" transform="translate(7.051 6.367)">
        <path id="Контур_32-2" data-name="Контур 32" d="M98.247,41.551H95.659a5.411,5.411,0,0,1-3.808-9.194l1.83-1.831a1.452,1.452,0,0,0,0-2.054L78.533,13.323a1.453,1.453,0,0,0-2.055,0l-1.832,1.832A5.267,5.267,0,0,1,70.9,16.7a5.626,5.626,0,0,1-2.155-.435,5.307,5.307,0,0,1-3.293-4.919V8.757A1.453,1.453,0,0,0,64,7.3H49.447a1.453,1.453,0,1,0,0,2.906h13.1v1.137A8.3,8.3,0,0,0,76.7,17.209l.8-.8L90.6,29.5l-.8.8a8.315,8.315,0,0,0,5.863,14.153h1.135V62.976H95.659A8.317,8.317,0,0,0,89.8,77.129l.8.8-13.094,13.1-.8-.8a8.163,8.163,0,0,0-5.793-2.4,8.538,8.538,0,0,0-3.268.657,8.208,8.208,0,0,0-5.091,7.606v1.137H44.03V96.086a8.3,8.3,0,0,0-14.154-5.863l-.8.8-13.094-13.1.8-.8a8.225,8.225,0,0,0,1.755-9.03l-1.354.525-1.307.64a5.307,5.307,0,0,1-1.149,5.81l-1.83,1.83a1.453,1.453,0,0,0,0,2.055L28.044,94.11a1.5,1.5,0,0,0,2.055,0l1.832-1.832a5.261,5.261,0,0,1,3.74-1.55,5.576,5.576,0,0,1,2.156.44,5.3,5.3,0,0,1,3.3,4.919v2.59a1.453,1.453,0,0,0,1.453,1.453H64a1.453,1.453,0,0,0,1.453-1.453v-2.59a5.4,5.4,0,0,1,9.191-3.808l1.832,1.832a1.5,1.5,0,0,0,2.055,0L93.682,78.959a1.453,1.453,0,0,0,0-2.055l-1.83-1.83a5.411,5.411,0,0,1,3.808-9.193h2.588A1.453,1.453,0,0,0,99.7,64.429V43a1.453,1.453,0,0,0-1.453-1.453Z" transform="translate(-7.051 -6.367)" fill="#666"/>
      </g>
    </g>
  </g>
</svg>
